<svg id="Shark" xmlns="http://www.w3.org/2000/svg" width="14" height="12" viewBox="0 0 14 12"><title>Bash</title><g id="Bash"><rect x="1.61" y="0.81" width="10.78" height="10.38" rx="1" ry="1" style="fill:#3e474a"/><path d="M5,9.55H4.64V8.46a4.43,4.43,0,0,1-.73-.11,3.77,3.77,0,0,1-.72-.23V7.47a3.25,3.25,0,0,0,.73.35,2.65,2.65,0,0,0,.72.12V6.28a2.07,2.07,0,0,1-1.09-.44A1.12,1.12,0,0,1,3.19,5a1.18,1.18,0,0,1,.38-.91,1.85,1.85,0,0,1,1.07-.39V2.82H5v.85a4,4,0,0,1,.58.08,4.7,4.7,0,0,1,.6.14v.63a4.68,4.68,0,0,0-.6-.24A2.43,2.43,0,0,0,5,4.18V5.74a2.22,2.22,0,0,1,1.13.46A1.23,1.23,0,0,1,6.11,8,1.72,1.72,0,0,1,5,8.45ZM4.64,5.67V4.17a.83.83,0,0,0-.58.22.69.69,0,0,0-.22.54.63.63,0,0,0,.2.49A1,1,0,0,0,4.64,5.67ZM5,6.36V7.93a.93.93,0,0,0,.62-.22.75.75,0,0,0,.22-.58.66.66,0,0,0-.2-.52A1.19,1.19,0,0,0,5,6.36Z" style="fill:#fff"/><path d="M11,7.76v.48H7.19V7.76Z" style="fill:#47b353"/></g></svg>