<svg id="Shark" xmlns="http://www.w3.org/2000/svg" width="14" height="12" viewBox="0 0 14 12"><title>CPP</title><g id="CPP"><polygon points="13.34 6.48 13.34 5.83 12.91 5.83 12.91 6.48 12.25 6.48 12.25 6.92 12.91 6.92 12.91 7.57 13.34 7.57 13.34 6.92 14 6.92 14 6.48 13.34 6.48" style="fill:#639ad2"/><path d="M10.92,8l2.31,1.33A5.33,5.33,0,0,1,7.5,11.89,5.45,5.45,0,0,1,3.18,6.64,5.44,5.44,0,0,1,7.47,1.39,5.37,5.37,0,0,1,13.25,4l-.34.21c-.58.33-1.17.66-1.75,1-.19.12-.28.11-.44-.09A2.52,2.52,0,0,0,8,4.07a2.5,2.5,0,0,0-2,2,2.62,2.62,0,0,0,1.53,3,2.68,2.68,0,0,0,3.23-.92Z" style="fill:#639ad2"/><polygon points="11.17 5.83 10.74 5.83 10.74 6.48 10.08 6.48 10.08 6.92 10.74 6.92 10.74 7.57 11.17 7.57 11.17 6.92 11.83 6.92 11.83 6.48 11.17 6.48 11.17 5.83" style="fill:#639ad2"/></g></svg>