<svg id="Shark" xmlns="http://www.w3.org/2000/svg" width="14" height="12" viewBox="0 0 14 12"><title>CSS</title><g id="CSS"><g id="g3013"><polygon id="polygon2989" points="11.22 2.38 10.45 11 7 11.96 3.55 11 2.78 2.38 11.22 2.38" style="fill:#264de4"/><polygon id="polygon2991" points="9.79 10.45 10.45 3.09 7 3.09 7 11.22 9.79 10.45" style="fill:#2965f1"/><polygon id="polygon2993" points="4.54 6.28 4.63 7.34 7 7.34 7 6.28 4.54 6.28" style="fill:#ebebeb"/><polygon id="polygon2995" points="7 4.14 7 4.14 4.35 4.14 4.45 5.2 7 5.2 7 4.14" style="fill:#ebebeb"/><polygon id="polygon2997" points="7 10.13 7 9.03 7 9.03 5.82 8.71 5.74 7.87 5.17 7.87 4.68 7.87 4.83 9.53 7 10.13 7 10.13" style="fill:#ebebeb"/><path id="path2999" d="M4.77,0H6.05V.58H5.3v.53h.75v.54H4.77Z"/><path id="path3001" d="M6.3,0H7.58V.51H6.84V.6h.74V1.67H6.3V1.18h.75V1.09H6.3Z"/><path id="path3003" d="M7.84,0H9.12V.51H8.37V.6h.75V1.67H7.84V1.18h.74V1.09H7.84Z"/><polygon id="polygon3005" points="8.3 7.34 8.18 8.71 7 9.03 7 10.13 9.16 9.53 9.18 9.35 9.43 6.57 9.45 6.28 9.64 4.14 7 4.14 7 5.2 8.49 5.2 8.39 6.28 7 6.28 7 7.34 8.3 7.34" style="fill:#fff"/></g></g></svg>