<svg id="Shark" xmlns="http://www.w3.org/2000/svg" width="14" height="12" viewBox="0 0 14 12"><title>Docker</title><g id="Docker"><path d="M2.16,9.62V8.73a.2.2,0,0,1,.2-.21h0a.19.19,0,0,1,.19.21V10.6a1.17,1.17,0,0,1-.61,1,1.16,1.16,0,0,1-.6.17H1.29a1.19,1.19,0,0,1-1-.62,1.24,1.24,0,0,1-.16-.59v-.09a1.2,1.2,0,0,1,.62-1,1.21,1.21,0,0,1,.59-.16h.08a1.15,1.15,0,0,1,.79.32ZM.5,10.55a.81.81,0,0,0,.45.74.83.83,0,0,0,.38.1A.81.81,0,0,0,2.05,11a.77.77,0,0,0,.11-.41.81.81,0,0,0-.36-.68.8.8,0,0,0-.47-.15.79.79,0,0,0-.75.5.76.76,0,0,0-.08.33ZM4,9.3H4.1a1.23,1.23,0,0,1,1.23,1.21v.09a1.17,1.17,0,0,1-.61,1,1.13,1.13,0,0,1-.6.17H4a1.19,1.19,0,0,1-1-.62,1.24,1.24,0,0,1-.16-.59v-.09A1.23,1.23,0,0,1,4,9.3Zm-.79,1.25a.81.81,0,0,0,.43.72.73.73,0,0,0,.41.12A.79.79,0,0,0,4.8,11a.77.77,0,0,0,.11-.41.8.8,0,0,0-.38-.69.82.82,0,0,0-.45-.14.79.79,0,0,0-.75.5.64.64,0,0,0-.08.33Zm3.83-.79a1,1,0,0,0-.25,0,.79.79,0,0,0-.75.5.66.66,0,0,0-.08.34.8.8,0,0,0,.51.76.92.92,0,0,0,.4.07,1,1,0,0,0,.37-.12h.1a.19.19,0,0,1,.17.19v0c0,.25-.47.31-.64.33a1.2,1.2,0,0,1-1.28-.91,1.06,1.06,0,0,1,0-.31V10.5a1.18,1.18,0,0,1,.62-1,1.12,1.12,0,0,1,.59-.17h.08a1.13,1.13,0,0,1,.62.19h0v0a.21.21,0,0,1,0,.11v0a.19.19,0,0,1-.18.19h0a1.34,1.34,0,0,1-.26-.09ZM8.44,10c.17-.16.33-.33.49-.49s.23-.23.29-.23h.09a.19.19,0,0,1,.17.18v.05c0,.07-.09.15-.13.2l-.3.3-.51.51.66.66.18.19a.46.46,0,0,1,.07.07.38.38,0,0,1,0,.1v0h0a.19.19,0,0,1-.19.18h0c-.07,0-.15-.08-.2-.13l-.29-.28-.32-.32v.51a.19.19,0,0,1-.19.21h0a.2.2,0,0,1-.2-.21V8.74a.2.2,0,0,1,.2-.21h0a.19.19,0,0,1,.19.21V10Zm5.24-.72h0a.2.2,0,0,1,.21.21c0,.17-.17.22-.31.22a.74.74,0,0,0-.5.24.8.8,0,0,0-.23.59v1a.2.2,0,0,1-.2.21h0a.19.19,0,0,1-.19-.21V10.52a1.17,1.17,0,0,1,.53-1,1.11,1.11,0,0,1,.68-.22Zm-3,2a.9.9,0,0,0,.49,0,1.24,1.24,0,0,1,.36-.11h0a.21.21,0,0,1,.11.1.19.19,0,0,1-.08.28l0,0a1.21,1.21,0,0,1-1.22,0,1.16,1.16,0,0,1-.44-.44l0,0a1.18,1.18,0,0,1,.07-1.33,1.12,1.12,0,0,1,.38-.34l.06,0a1.2,1.2,0,0,1,1.16,0,1.14,1.14,0,0,1,.49.46l0,0c.08.15,0,.28-.14.36s-.26.22-.38.33l-.84.72Zm-.36-.25.94-.8.32-.29a.87.87,0,0,0-1.05-.16.8.8,0,0,0-.4.77.7.7,0,0,0,.11.37A.44.44,0,0,0,10.33,11.08ZM8.06,2.67H9.3V3.93h.63a2.77,2.77,0,0,0,.86-.14,2.26,2.26,0,0,0,.42-.19,1.56,1.56,0,0,1-.29-.8,1.66,1.66,0,0,1,.3-1.19l.13-.15.16.12a2,2,0,0,1,.78,1.25A1.86,1.86,0,0,1,13.72,3l.17.09-.09.18A1.79,1.79,0,0,1,12,4.1,6.28,6.28,0,0,1,5.76,8,3.94,3.94,0,0,1,2.19,6.19v0l-.11-.23a3.54,3.54,0,0,1-.29-1.82l0-.19H2.86V2.67H4.1V1.43H6.58V.19H8.06V2.67" style="fill:#364548"/><path d="M12.08,3.13a1.64,1.64,0,0,0-.7-1.39,1.52,1.52,0,0,0,.14,1.89,2.59,2.59,0,0,1-1.59.51H2A3.38,3.38,0,0,0,2.32,6l.09.17a2.75,2.75,0,0,0,.19.28c.32,0,.62,0,.9,0h0a4.3,4.3,0,0,0,1.32-.19.09.09,0,0,1,.12.06.1.1,0,0,1-.06.12l-.14,0h0a3.75,3.75,0,0,1-.91.15H2.77a3.9,3.9,0,0,0,3,1.19,6.07,6.07,0,0,0,6.11-3.95,1.64,1.64,0,0,0,1.75-.73,1.74,1.74,0,0,0-1.54,0" style="fill:#22a0c8"/><path d="M12.08,3.13a1.64,1.64,0,0,0-.7-1.39,1.52,1.52,0,0,0,.14,1.89,2.59,2.59,0,0,1-1.59.51H2.46a2.57,2.57,0,0,0,1,2.31h0a4.3,4.3,0,0,0,1.32-.19.09.09,0,0,1,.12.06.1.1,0,0,1-.06.12l-.14,0h0a3.9,3.9,0,0,1-.94.16h0a4.77,4.77,0,0,0,3.84-.12,10.78,10.78,0,0,0,4.49-3.4l-.05,0" style="fill:#37b1d9"/><path d="M2,5a3.14,3.14,0,0,0,.32,1l.09.17a2.75,2.75,0,0,0,.19.28c.32,0,.62,0,.9,0a4.3,4.3,0,0,0,1.32-.19.09.09,0,0,1,.12.06.1.1,0,0,1-.06.12l-.14,0h0a4.47,4.47,0,0,1-.93.16H2.76a3.94,3.94,0,0,0,3,1.19A6.16,6.16,0,0,0,11.34,5H2" style="fill:#1b81a5"/><path d="M2.53,5a2.37,2.37,0,0,0,1,1.48,4.3,4.3,0,0,0,1.32-.19.09.09,0,0,1,.12.06.1.1,0,0,1-.06.12l-.14,0h0a4.58,4.58,0,0,1-.94.16,4.78,4.78,0,0,0,3.84-.13A10.24,10.24,0,0,0,10.29,5H2.53" style="fill:#1d91b4"/><path d="M3.07,2.87H4.14V4H3.07ZM3.16,3h.08v.9H3.16Zm.16,0H3.4v.9H3.32V3Zm.16,0h.09v.9H3.48Zm.16,0h.09v.9H3.64ZM3.8,3h.09v.9H3.8V3ZM4,3h.08v.9H4Zm.34-1.33H5.38V2.71H4.31V1.63Zm.09.09h.08v.9H4.4Zm.15,0h.09v.9H4.55v-.9Zm.17,0h.09v.9H4.72Zm.16,0H5v.9H4.88Zm.16,0h.09v.9H5Zm.17,0h.08v.9H5.21Z" style="fill:#23a3c2"/><path d="M4.31,2.87H5.38V4H4.31V2.87ZM4.4,3h.08v.9H4.4Zm.15,0h.09v.9H4.55V3Zm.17,0h.09v.9H4.72Zm.16,0H5v.9H4.88ZM5,3h.09v.9H5Zm.17,0h.08v.9H5.21Z" style="fill:#34bbde"/><path d="M5.55,2.87H6.62V4H5.55ZM5.63,3h.09v.9H5.63Zm.16,0h.09v.9H5.79ZM6,3H6v.9H6Zm.16,0h.09v.9H6.12Zm.16,0h.09v.9H6.28Zm.16,0h.09v.9H6.44Z" style="fill:#23a3c2"/><path d="M5.55,1.63H6.62V2.71H5.55Zm.08.09h.09v.9H5.63Zm.16,0h.09v.9H5.79Zm.17,0H6v.9H6Zm.16,0h.09v.9H6.12Zm.16,0h.09v.9H6.28Zm.16,0h.09v.9H6.44Zm.34,1.15H7.86V4H6.78ZM6.87,3H7v.9H6.87ZM7,3h.09v.9H7ZM7.2,3h.08v.9H7.2Zm.16,0h.09v.9H7.36Zm.16,0h.09v.9H7.52Zm.16,0h.09v.9H7.68Z" style="fill:#34bbde"/><path d="M6.78,1.63H7.86V2.71H6.78Zm.09.09H7v.9H6.87Zm.16,0h.09v.9H7Zm.17,0h.08v.9H7.2Zm.16,0h.09v.9H7.36Zm.16,0h.09v.9H7.52Zm.16,0h.09v.9H7.68Z" style="fill:#23a3c2"/><path d="M6.78.39H7.86V1.47H6.78Zm.09.09H7v.9H6.87V.48ZM7,.48h.09v.9H7V.48Zm.17,0h.08v.9H7.2V.48Zm.16,0h.09v.9H7.36V.48Zm.16,0h.09v.9H7.52V.48Zm.16,0h.09v.9H7.68V.48Z" style="fill:#34bbde"/><path d="M8,2.87H9.1V4H8ZM8.11,3H8.2v.9H8.11V3Zm.16,0h.09v.9H8.27V3Zm.16,0h.09v.9H8.43ZM8.6,3h.09v.9H8.6Zm.16,0h.09v.9H8.76Zm.16,0H9v.9H8.92Z" style="fill:#23a3c2"/><path d="M5.31,5.69a.3.3,0,1,1,0,.59h0A.3.3,0,0,1,5,6a.29.29,0,0,1,.29-.29" style="fill:#d3ecec"/><path d="M5.31,5.77l.08,0a.07.07,0,0,0,0,.11.08.08,0,0,0,.07,0,.09.09,0,0,0,.08,0,.22.22,0,0,1-.12.28.21.21,0,0,1-.27-.11.21.21,0,0,1,.11-.28l.08,0M.07,5.07H13.85c-.3-.07-.94-.18-.84-.57a1.89,1.89,0,0,1-2.19.13c-.37.54-2.52.34-2.67-.08a1.94,1.94,0,0,1-2.37,0c-.15.42-2.3.62-2.67.08A1.91,1.91,0,0,1,.91,4.5c.11.39-.54.5-.84.57" style="fill:#364548"/><path d="M6.1,7.82A2.6,2.6,0,0,1,4.74,6.48a4.3,4.3,0,0,1-1,.15l-.45,0-.58,0a3.92,3.92,0,0,0,3,1.2H6.1" style="fill:#bdd9d7"/><path d="M5,7a2.48,2.48,0,0,1-.27-.48,4.3,4.3,0,0,1-1,.15A2.89,2.89,0,0,0,5,7" style="fill:#d3ecec"/></g></svg>