<svg id="Shark" xmlns="http://www.w3.org/2000/svg" width="14" height="12" viewBox="0 0 14 12"><title>HTML</title><g id="HTML"><path d="M3.56,0h.53V.56h.5V0h.53V1.64H4.59V1.1H4.1v.54H3.56M5.83.56H5.36V0H6.85V.56H6.37V1.64H5.83M7.08,0h.56L8,.59,8.33,0H8.9V1.64H8.36V.84L8,1.42,7.61.84v.8H7.08M9.16,0H9.7V1.11h.76v.53H9.16"/><path d="M3.54,11,2.77,2.37h8.46L10.46,11,7,12" style="fill:#e44d26"/><path d="M7,11.24V3.08h3.46L9.8,10.46" style="fill:#f16529"/><path d="M4.34,4.14H7V5.2H5.5l.1,1.08H7V7.34H4.63m0,.53H5.74l.07.85L7,9v1.1l-2.17-.6" style="fill:#ebebeb"/><path d="M9.65,4.14H7V5.2H9.55M9.46,6.28H7V7.34H8.3L8.18,8.72,7,9v1.1l2.16-.6" style="fill:#fff"/></g></svg>