<svg id="Shark" xmlns="http://www.w3.org/2000/svg" width="14" height="12" viewBox="0 0 14 12"><title>Java</title><g id="Java"><path d="M5.53,9.07s-.43.25.3.33a6.38,6.38,0,0,0,2.33-.09,3.68,3.68,0,0,0,.62.3c-2.2.94-5-.06-3.25-.54" style="fill:#5382a1"/><path d="M5.26,7.84s-.48.36.25.43a9,9,0,0,0,3-.14A1.36,1.36,0,0,0,9,8.41c-2.65.78-5.61.06-3.71-.57" style="fill:#5382a1"/><path d="M7.52,5.75a.83.83,0,0,1-.14,1.19s1.38-.71.74-1.6-1-1.24,1.41-2.66c0,0-3.84,1-2,3.07" style="fill:#e76f00"/><path d="M10.43,10s.32.26-.35.46c-1.27.39-5.28.5-6.4,0-.4-.18.35-.42.59-.47a1.62,1.62,0,0,1,.39,0c-.45-.32-2.88.61-1.24.88,4.48.73,8.17-.33,7-.85" style="fill:#5382a1"/><path d="M5.73,6.57s-2,.48-.72.66a16.53,16.53,0,0,0,2.7,0C8.55,7.13,9.4,7,9.4,7a2.89,2.89,0,0,0-.51.27C6.82,7.8,2.81,7.54,4,7a3.82,3.82,0,0,1,1.77-.41" style="fill:#5382a1"/><path d="M9.39,8.61c2.11-1.09,1.14-2.14.46-2a1.23,1.23,0,0,0-.24.06.43.43,0,0,1,.18-.14c1.34-.47,2.38,1.4-.44,2.14a.19.19,0,0,0,0-.06" style="fill:#5382a1"/><path d="M8.12.38s1.17,1.17-1.1,3C5.19,4.79,6.6,5.61,7,6.55,6,5.59,5.17,4.74,5.69,4,6.46,2.8,8.59,2.24,8.12.38" style="fill:#e76f00"/><path d="M5.94,11.58c2,.13,5.13-.07,5.2-1,0,0-.14.36-1.67.65a16.43,16.43,0,0,1-5.12.08,3.51,3.51,0,0,0,1.59.3" style="fill:#5382a1"/></g></svg>