<svg id="Shark" xmlns="http://www.w3.org/2000/svg" width="14" height="12" viewBox="0 0 14 12"><title>Javascript</title><g id="Javascript"><rect x="1.35" y="0.44" width="12.65" height="11.56" style="fill:#f0da50"/><path d="M4.82,10.16V9a2.46,2.46,0,0,0,.64.46,1.72,1.72,0,0,0,.69.15.82.82,0,0,0,.6-.19.86.86,0,0,0,.19-.63V6.21H5.67V5.33H8V8.78a1.82,1.82,0,0,1-.4,1.33,1.86,1.86,0,0,1-1.32.4,2.92,2.92,0,0,1-.7-.09A4.58,4.58,0,0,1,4.82,10.16Z" style="fill:#323230"/><path d="M10.55,8.18a2.7,2.7,0,0,1-1.06-.61,1.28,1.28,0,0,1-.28-.85,1.38,1.38,0,0,1,.46-1.09,1.85,1.85,0,0,1,1.25-.39,2.94,2.94,0,0,1,.72.08,4,4,0,0,1,.72.23v1a2.93,2.93,0,0,0-.68-.35A2.3,2.3,0,0,0,11,6.07a.92.92,0,0,0-.57.14.53.53,0,0,0-.06.77,2,2,0,0,0,.61.3l.45.17a2.1,2.1,0,0,1,.93.59,1.5,1.5,0,0,1,.29.94,1.41,1.41,0,0,1-.46,1.15,2.27,2.27,0,0,1-1.42.38,3.46,3.46,0,0,1-.78-.09,3.63,3.63,0,0,1-.76-.27v-1a4,4,0,0,0,.81.43,2.27,2.27,0,0,0,.76.14.92.92,0,0,0,.59-.17A.57.57,0,0,0,11.61,9a.57.57,0,0,0-.15-.4.79.79,0,0,0-.4-.27Z" style="fill:#323230"/></g></svg>