<svg id="Shark" xmlns="http://www.w3.org/2000/svg" width="14" height="12" viewBox="0 0 14 12"><title>JSON</title><g id="JSON"><path d="M6,10.33v1.09H5.11A3.08,3.08,0,0,1,3.19,11a2.24,2.24,0,0,1-.48-1.69V8.07a1.82,1.82,0,0,0-.31-1.2,1.55,1.55,0,0,0-1.11-.32H.93V5.45h.36A1.5,1.5,0,0,0,2.4,5.12a1.8,1.8,0,0,0,.31-1.2V2.69A2.23,2.23,0,0,1,3.19,1,3.08,3.08,0,0,1,5.11.58H6V1.67H5.26a1,1,0,0,0-.8.24A1.86,1.86,0,0,0,4.26,3v1.2A2.33,2.33,0,0,1,4,5.5,1.42,1.42,0,0,1,3,6a1.44,1.44,0,0,1,1,.52,2.33,2.33,0,0,1,.28,1.33V9a1.9,1.9,0,0,0,.2,1.07,1,1,0,0,0,.8.25Z" style="fill:#323230"/><path d="M8,10.33h.7a1,1,0,0,0,.8-.25A1.8,1.8,0,0,0,9.74,9V7.84A2.33,2.33,0,0,1,10,6.51,1.44,1.44,0,0,1,11,6a1.4,1.4,0,0,1-1-.49,2.33,2.33,0,0,1-.28-1.33V3a1.8,1.8,0,0,0-.21-1.06,1,1,0,0,0-.8-.24H8V.58h.86A3.06,3.06,0,0,1,10.8,1a2.23,2.23,0,0,1,.48,1.69V3.92a1.75,1.75,0,0,0,.31,1.2,1.51,1.51,0,0,0,1.12.33h.36v1.1h-.36a1.51,1.51,0,0,0-1.12.33,1.73,1.73,0,0,0-.31,1.19V9.31A2.24,2.24,0,0,1,10.8,11a3.06,3.06,0,0,1-1.91.42H8Z" style="fill:#323230"/></g></svg>