<svg id="Shark" xmlns="http://www.w3.org/2000/svg" width="14" height="12" viewBox="0 0 14 12"><title>JSON</title><g id="JSON"><path d="M6.9,10.9V12H6a3.12,3.12,0,0,1-1.92-.42,2.27,2.27,0,0,1-.48-1.7V8.65a1.75,1.75,0,0,0-.31-1.2,1.47,1.47,0,0,0-1.11-.33H1.86V6h.36A1.47,1.47,0,0,0,3.33,5.7a1.75,1.75,0,0,0,.31-1.2V3.26a2.24,2.24,0,0,1,.48-1.69A3.12,3.12,0,0,1,6,1.15H6.9V2.24H6.19a1,1,0,0,0-.79.24,1.78,1.78,0,0,0-.21,1.06v1.2a2.34,2.34,0,0,1-.28,1.34,1.44,1.44,0,0,1-1,.49,1.45,1.45,0,0,1,1,.51,2.33,2.33,0,0,1,.28,1.33V9.59a1.8,1.8,0,0,0,.21,1.07,1,1,0,0,0,.79.24Z" style="fill:#323230"/><path d="M9,10.9h.69a1,1,0,0,0,.8-.24,1.82,1.82,0,0,0,.21-1.07V8.41A2.33,2.33,0,0,1,11,7.08a1.47,1.47,0,0,1,1-.51,1.44,1.44,0,0,1-1-.49,2.34,2.34,0,0,1-.28-1.34V3.54a1.84,1.84,0,0,0-.2-1,1,1,0,0,0-.81-.25H9V1.15h.86a3,3,0,0,1,1.9.42,2.24,2.24,0,0,1,.48,1.69V4.5a1.73,1.73,0,0,0,.31,1.19A1.51,1.51,0,0,0,13.64,6H14v1.1h-.36a1.51,1.51,0,0,0-1.12.33,1.77,1.77,0,0,0-.31,1.2V9.88a2.27,2.27,0,0,1-.48,1.7,3,3,0,0,1-1.9.42H9Z" style="fill:#323230"/></g></svg>