<svg id="Shark" xmlns="http://www.w3.org/2000/svg" width="14" height="12" viewBox="0 0 14 12"><title>NPM</title><g id="NPM"><path d="M.65,6.81H14v4.45H7.32V12h-3v-.74H.65Zm.74,3.71H2.87V8.29h.74v2.23h.74v-3h-3Zm3.71-3v3.71H6.58v-.74H8.06v-3Zm1.48.74h.74V9.77H6.58Zm2.23-.74v3h1.48V8.29H11v2.23h.74V8.29h.75v2.23h.74v-3Z" style="fill:#cb3837"/><polygon points="1.39 10.52 2.87 10.52 2.87 8.29 3.61 8.29 3.61 10.52 4.36 10.52 4.36 7.55 1.39 7.55 1.39 10.52" style="fill:#fff"/><path d="M5.1,7.55v3.71H6.58v-.74H8.06v-3ZM7.32,9.77H6.58V8.29h.74Z" style="fill:#fff"/><polygon points="8.81 7.55 8.81 10.52 10.29 10.52 10.29 8.29 11.03 8.29 11.03 10.52 11.77 10.52 11.77 8.29 12.52 8.29 12.52 10.52 13.26 10.52 13.26 7.55 8.81 7.55" style="fill:#fff"/></g></svg>