<svg id="Shark" xmlns="http://www.w3.org/2000/svg" width="14" height="12" viewBox="0 0 14 12"><title>PHP</title><g id="PHP"><circle cx="8.43" cy="6.43" r="5.57" style="fill:#36447f"/><g id="Layer_2" data-name="Layer 2"><path d="M5.94,5.61a.66.66,0,0,1,.51.15c.09.09.1.25.06.48a.81.81,0,0,1-.27.51,1,1,0,0,1-.6.16H5.23l.24-1.3ZM4.3,8.21H5l.16-.82h.58a2.17,2.17,0,0,0,.62-.08A1.38,1.38,0,0,0,6.78,7a1.6,1.6,0,0,0,.28-.35,1.32,1.32,0,0,0,.14-.41A1,1,0,0,0,7,5.42a1,1,0,0,0-.84-.3H4.9Z" style="fill:#c9d5f7"/><path d="M7.88,4.31h.67l-.16.82H9a1.13,1.13,0,0,1,.77.2A.64.64,0,0,1,9.88,6L9.6,7.41H8.92l.26-1.36c0-.16,0-.26,0-.31a.45.45,0,0,0-.33-.09H8.28L7.94,7.41H7.27Z" style="fill:#c9d5f7"/><path d="M11.37,5.61a.66.66,0,0,1,.51.15c.09.09.1.25.06.48a.86.86,0,0,1-.27.51,1,1,0,0,1-.6.16h-.41l.24-1.3ZM9.73,8.21h.67l.16-.82h.58a2.17,2.17,0,0,0,.62-.08A1.38,1.38,0,0,0,12.21,7a1.31,1.31,0,0,0,.27-.35,1.12,1.12,0,0,0,.15-.41,1,1,0,0,0-.16-.86,1.06,1.06,0,0,0-.84-.3h-1.3Z" style="fill:#c9d5f7"/></g></g></svg>