<svg id="Shark" xmlns="http://www.w3.org/2000/svg" xmlns:xlink="http://www.w3.org/1999/xlink" width="14" height="12" viewBox="0 0 14 12"><defs><linearGradient id="linear-gradient" x1="-940.8" y1="432.78" x2="-940.79" y2="432.77" gradientTransform="matrix(1849.27, 0, 0, -1853.39, 1739785.06, 802106.3)" gradientUnits="userSpaceOnUse"><stop offset="0" stop-color="#387eb8"/><stop offset="1" stop-color="#366994"/></linearGradient><linearGradient id="linear-gradient-2" x1="-941.14" y1="433.11" x2="-941.14" y2="433.11" gradientTransform="matrix(1849.27, 0, 0, -1853.39, 1740429.24, 802733.73)" gradientUnits="userSpaceOnUse"><stop offset="0" stop-color="#ffe052"/><stop offset="1" stop-color="#ffc331"/></linearGradient></defs><title>Python</title><g id="Python"><path d="M7,.16c-3,0-2.79,1.3-2.79,1.3V2.79H7V3.2H3S1.13,3,1.13,6,2.8,8.88,2.8,8.88h1V7.49A1.58,1.58,0,0,1,5.43,5.83H8.25A1.52,1.52,0,0,0,9.83,4.29V1.72S10.07.16,7,.16Zm-1.57.9a.51.51,0,0,1,.51.51h0a.51.51,0,0,1-.51.51h0a.51.51,0,0,1-.51-.51h0a.51.51,0,0,1,.51-.52Z" style="fill:url(#linear-gradient)"/><path d="M7,11.84c3,0,2.79-1.3,2.79-1.3V9.21H7V8.8h4S12.87,9,12.87,6s-1.67-2.9-1.67-2.9h-1V4.51A1.58,1.58,0,0,1,8.57,6.17H5.75A1.52,1.52,0,0,0,4.17,7.71v2.57S3.93,11.84,7,11.84Zm1.57-.9a.51.51,0,0,1-.51-.51h0a.51.51,0,0,1,.51-.51h0a.51.51,0,0,1,.51.51h0a.51.51,0,0,1-.51.52Z" style="fill:url(#linear-gradient-2)"/></g></svg>