<svg id="Shark" xmlns="http://www.w3.org/2000/svg" xmlns:xlink="http://www.w3.org/1999/xlink" width="14" height="12" viewBox="0 0 14 12"><defs><linearGradient id="linear-gradient" x1="12.62" y1="-57.03" x2="10.23" y2="-52.8" gradientTransform="matrix(1, 0, 0, -1, 0, -44)" gradientUnits="userSpaceOnUse"><stop offset="0" stop-color="#fb7655"/><stop offset="0.41" stop-color="#e42b1e"/><stop offset="0.99" stop-color="#900"/><stop offset="1" stop-color="#900"/></linearGradient><linearGradient id="linear-gradient-2" x1="13.81" y1="-53.48" x2="10.73" y2="-51.41" gradientTransform="matrix(1, 0, 0, -1, 0, -44)" gradientUnits="userSpaceOnUse"><stop offset="0" stop-color="#871101"/><stop offset="0.99" stop-color="#911209"/><stop offset="1" stop-color="#911209"/></linearGradient><linearGradient id="linear-gradient-3" x1="11.35" y1="-57.16" x2="8.27" y2="-55.09" xlink:href="#linear-gradient-2"/><linearGradient id="linear-gradient-4" x1="4.88" y1="-51.98" x2="5.35" y2="-55.09" gradientTransform="matrix(1, 0, 0, -1, 0, -44)" gradientUnits="userSpaceOnUse"><stop offset="0" stop-color="#fff"/><stop offset="0.23" stop-color="#e57252"/><stop offset="0.46" stop-color="#de3b20"/><stop offset="0.99" stop-color="#a60003"/><stop offset="1" stop-color="#a60003"/></linearGradient><linearGradient id="linear-gradient-5" x1="8.16" y1="-49.08" x2="8.34" y2="-52.25" gradientTransform="matrix(1, 0, 0, -1, 0, -44)" gradientUnits="userSpaceOnUse"><stop offset="0" stop-color="#fff"/><stop offset="0.23" stop-color="#e4714e"/><stop offset="0.56" stop-color="#be1a0d"/><stop offset="0.99" stop-color="#a80d00"/><stop offset="1" stop-color="#a80d00"/></linearGradient><linearGradient id="linear-gradient-6" x1="11.08" y1="-46.15" x2="11.61" y2="-48.42" gradientTransform="matrix(1, 0, 0, -1, 0, -44)" gradientUnits="userSpaceOnUse"><stop offset="0" stop-color="#fff"/><stop offset="0.18" stop-color="#e46342"/><stop offset="0.4" stop-color="#c82410"/><stop offset="0.99" stop-color="#a80d00"/><stop offset="1" stop-color="#a80d00"/></linearGradient><linearGradient id="linear-gradient-7" x1="9.47" y1="-45.35" x2="11.74" y2="-44.22" gradientTransform="matrix(1, 0, 0, -1, 0, -44)" gradientUnits="userSpaceOnUse"><stop offset="0" stop-color="#fff"/><stop offset="0.54" stop-color="#c81f11"/><stop offset="0.99" stop-color="#bf0905"/><stop offset="1" stop-color="#bf0905"/></linearGradient><linearGradient id="linear-gradient-8" x1="2.88" y1="-51.19" x2="3.07" y2="-53.06" gradientTransform="matrix(1, 0, 0, -1, 0, -44)" gradientUnits="userSpaceOnUse"><stop offset="0" stop-color="#fff"/><stop offset="0.31" stop-color="#de4024"/><stop offset="0.99" stop-color="#bf190b"/><stop offset="1" stop-color="#bf190b"/></linearGradient><linearGradient id="linear-gradient-9" x1="1.6" y1="-53.57" x2="10.39" y2="-44.53" gradientTransform="matrix(1, 0, 0, -1, 0, -44)" gradientUnits="userSpaceOnUse"><stop offset="0" stop-color="#bd0012"/><stop offset="0.07" stop-color="#fff"/><stop offset="0.17" stop-color="#fff"/><stop offset="0.27" stop-color="#c82f1c"/><stop offset="0.33" stop-color="#820c01"/><stop offset="0.46" stop-color="#a31601"/><stop offset="0.72" stop-color="#b31301"/><stop offset="0.99" stop-color="#e82609"/><stop offset="1" stop-color="#e82609"/></linearGradient><linearGradient id="linear-gradient-10" x1="8.33" y1="-54.48" x2="5.68" y2="-53.83" gradientTransform="matrix(1, 0, 0, -1, 0, -44)" gradientUnits="userSpaceOnUse"><stop offset="0" stop-color="#8c0c01"/><stop offset="0.54" stop-color="#990c00"/><stop offset="0.99" stop-color="#a80d0e"/><stop offset="1" stop-color="#a80d0e"/></linearGradient><linearGradient id="linear-gradient-11" x1="12.88" y1="-51.3" x2="10.53" y2="-49.2" gradientTransform="matrix(1, 0, 0, -1, 0, -44)" gradientUnits="userSpaceOnUse"><stop offset="0" stop-color="#7e110b"/><stop offset="0.99" stop-color="#9e0c00"/><stop offset="1" stop-color="#9e0c00"/></linearGradient><linearGradient id="linear-gradient-12" x1="13.74" y1="-47.44" x2="12.57" y2="-46.18" gradientTransform="matrix(1, 0, 0, -1, 0, -44)" gradientUnits="userSpaceOnUse"><stop offset="0" stop-color="#79130d"/><stop offset="0.99" stop-color="#9e120b"/><stop offset="1" stop-color="#9e120b"/></linearGradient><radialGradient id="radial-gradient" cx="10.89" cy="-49.24" r="2.88" gradientTransform="matrix(1, 0, 0, -1, 0, -44)" gradientUnits="userSpaceOnUse"><stop offset="0" stop-color="#a80d00"/><stop offset="0.99" stop-color="#7e0e08"/><stop offset="1" stop-color="#7e0e08"/></radialGradient><radialGradient id="radial-gradient-2" cx="6.9" cy="-53.03" r="3.83" gradientTransform="matrix(1, 0, 0, -1, 0, -44)" gradientUnits="userSpaceOnUse"><stop offset="0" stop-color="#a30c00"/><stop offset="0.99" stop-color="#800e08"/><stop offset="1" stop-color="#800e08"/></radialGradient><linearGradient id="linear-gradient-13" x1="4.19" y1="-55.99" x2="3.23" y2="-52.75" gradientTransform="matrix(1, 0, 0, -1, 0, -44)" gradientUnits="userSpaceOnUse"><stop offset="0" stop-color="#8b2114"/><stop offset="0.43" stop-color="#9e100a"/><stop offset="0.99" stop-color="#b3100c"/><stop offset="1" stop-color="#b3100c"/></linearGradient><linearGradient id="linear-gradient-14" x1="11.51" y1="-45.25" x2="13.65" y2="-46.2" gradientTransform="matrix(1, 0, 0, -1, 0, -44)" gradientUnits="userSpaceOnUse"><stop offset="0" stop-color="#b31000"/><stop offset="0.44" stop-color="#910f08"/><stop offset="0.99" stop-color="#791c12"/><stop offset="1" stop-color="#791c12"/></linearGradient></defs><title>Ruby</title><g id="Ruby"><polygon id="polygon3282" points="11.45 8.16 4.97 12 13.35 11.43 14 2.98 11.45 8.16" style="fill:url(#linear-gradient)"/><polygon id="polygon3293" points="13.37 11.43 12.65 6.45 10.69 9.04 13.37 11.43" style="fill:url(#linear-gradient-2)"/><polygon id="polygon3304" points="13.38 11.43 8.1 11.01 5 11.99 13.38 11.43" style="fill:url(#linear-gradient-3)"/><polygon id="polygon3319" points="5.01 11.99 6.33 7.67 3.42 8.29 5.01 11.99" style="fill:url(#linear-gradient-4)"/><polygon id="polygon3334" points="10.69 9.06 9.47 4.31 6 7.56 10.69 9.06" style="fill:url(#linear-gradient-5)"/><polygon id="polygon3349" points="13.72 4.37 10.44 1.69 9.53 4.65 13.72 4.37" style="fill:url(#linear-gradient-6)"/><polygon id="polygon3362" points="12.19 0.74 10.26 1.8 9.04 0.72 12.19 0.74" style="fill:url(#linear-gradient-7)"/><polygon id="polygon3375" points="2.66 9.74 3.47 8.27 2.81 6.51 2.66 9.74" style="fill:url(#linear-gradient-8)"/><path id="path3377" d="M2.77,6.45l.66,1.87,2.86-.64,3.26-3,.93-2.92L9,.69l-2.47.93c-.78.72-2.29,2.15-2.34,2.18S3.22,5.6,2.77,6.45Z" style="fill:#fff"/><path id="path3400" d="M5.08,3.1C6.77,1.43,8.94.44,9.77,1.28S9.72,4.17,8,5.84,4.21,8.55,3.38,7.71,3.4,4.77,5.08,3.1Z" style="fill:url(#linear-gradient-9)"/><path id="path3413" d="M5,12,6.32,7.65l4.34,1.4A9.54,9.54,0,0,1,5,12Z" style="fill:url(#linear-gradient-10)"/><path id="path3424" d="M9.56,4.63l1.12,4.42a12.2,12.2,0,0,0,3.06-4.7Z" style="fill:url(#linear-gradient-11)"/><path id="path3435" d="M13.73,4.38C14.18,3,14.28,1.1,12.18.74l-1.73,1Z" style="fill:url(#linear-gradient-12)"/><path id="path3437" d="M2.66,9.72A2.08,2.08,0,0,0,5,12L3.43,8.31Z" style="fill:#9e1209"/><path id="path3448" d="M9.57,4.64l3.08,1.89a7.32,7.32,0,0,0,1.06-2.16Z" style="fill:url(#radial-gradient)"/><path id="path3459" d="M6.31,7.65,8.06,11a11,11,0,0,0,2.59-2Z" style="fill:url(#radial-gradient-2)"/><path id="path3472" d="M3.42,8.31l-.24,3A1.81,1.81,0,0,0,5,11.91C4.47,10.7,3.5,8.27,3.42,8.31Z" style="fill:url(#linear-gradient-13)"/><path id="path3485" d="M10.44,1.7l3.47.49A1.87,1.87,0,0,0,12.19.74Z" style="fill:url(#linear-gradient-14)"/></g></svg>