<svg id="Shark" xmlns="http://www.w3.org/2000/svg" width="14" height="12" viewBox="0 0 14 12"><title>Rust</title><g id="Rust"><path id="path3" d="M13.93,6.65l-.44-.28s0-.08,0-.12l.37-.36a.14.14,0,0,0,.05-.14.16.16,0,0,0-.1-.11l-.48-.18a.56.56,0,0,0,0-.12l.31-.42a.16.16,0,0,0,0-.15.17.17,0,0,0-.11-.09L13,4.6l-.06-.11L13.13,4a.16.16,0,0,0,0-.15A.17.17,0,0,0,13,3.8l-.52,0-.08-.1.12-.5A.15.15,0,0,0,12.33,3l-.5.12-.1-.09V2.56a.14.14,0,0,0-.21-.14l-.47.21L11,2.57l-.08-.51a.17.17,0,0,0-.1-.12.14.14,0,0,0-.14,0l-.42.3-.12,0-.18-.48a.16.16,0,0,0-.12-.09.15.15,0,0,0-.14,0l-.35.38H9.17L8.9,1.62a.14.14,0,0,0-.13-.07.12.12,0,0,0-.12.07l-.28.44H8.25l-.36-.38a.14.14,0,0,0-.14,0,.14.14,0,0,0-.11.09l-.18.48-.12,0L6.92,2a.16.16,0,0,0-.15,0,.19.19,0,0,0-.09.12l-.08.51-.11.06L6,2.42a.14.14,0,0,0-.15,0,.17.17,0,0,0-.07.13l0,.51-.1.09L5.22,3A.15.15,0,0,0,5,3.22l.12.5-.09.1-.51,0a.17.17,0,0,0-.13.07.14.14,0,0,0,0,.15l.21.47-.06.11-.51.08A.17.17,0,0,0,4,4.77a.16.16,0,0,0,0,.15l.3.42,0,.12-.49.18a.14.14,0,0,0-.09.11.14.14,0,0,0,0,.14l.38.36s0,.08,0,.12l-.44.28a.12.12,0,0,0-.07.12.14.14,0,0,0,.07.13l.44.27s0,.09,0,.13l-.38.35a.15.15,0,0,0,0,.14.16.16,0,0,0,.09.12l.49.18,0,.12L4,8.63a.14.14,0,0,0,0,.14.16.16,0,0,0,.11.1L4.57,9l.06.11-.21.47a.14.14,0,0,0,.14.21h.51l.09.1-.12.5a.15.15,0,0,0,0,.14.14.14,0,0,0,.14,0l.5-.12.1.08,0,.52a.17.17,0,0,0,.07.13.16.16,0,0,0,.15,0l.47-.21L6.6,11l.08.51a.17.17,0,0,0,.09.11.16.16,0,0,0,.15,0l.42-.31.12,0,.18.48a.16.16,0,0,0,.11.1.14.14,0,0,0,.14-.05l.36-.37h.12l.28.44a.14.14,0,0,0,.12.07.16.16,0,0,0,.13-.07l.27-.44H9.3l.35.37a.16.16,0,0,0,.14.05.17.17,0,0,0,.12-.1l.18-.48.12,0,.42.31a.14.14,0,0,0,.14,0,.16.16,0,0,0,.1-.11L11,11l.11-.06.47.21a.16.16,0,0,0,.15,0,.14.14,0,0,0,.06-.13v-.52l.1-.08.5.12a.15.15,0,0,0,.18-.18l-.12-.5.08-.1H13a.14.14,0,0,0,.13-.06.16.16,0,0,0,0-.15l-.21-.47L13,9l.51-.08a.16.16,0,0,0,.11-.1.14.14,0,0,0,0-.14l-.31-.42a.56.56,0,0,0,0-.12l.48-.18a.17.17,0,0,0,.1-.12.16.16,0,0,0-.05-.14l-.37-.35s0-.08,0-.13l.44-.27A.16.16,0,0,0,14,6.77a.14.14,0,0,0-.07-.12ZM11,10.29a.32.32,0,0,1-.24-.37.31.31,0,0,1,.37-.24.3.3,0,0,1,.24.37A.32.32,0,0,1,11,10.29Zm-.15-1a.27.27,0,0,0-.33.21l-.16.73a3.76,3.76,0,0,1-1.58.34,3.94,3.94,0,0,1-1.61-.35L7,9.48a.29.29,0,0,0-.34-.22L6,9.4A3.09,3.09,0,0,1,5.7,9H8.82s.06,0,.06,0V7.87s0,0-.06,0H7.91v-.7h1a.6.6,0,0,1,.6.52c0,.16.13.66.19.82s.3.54.55.54h1.61a2.79,2.79,0,0,1-.35.42l-.66-.14Zm-4.32,1a.31.31,0,1,1,.24-.37A.31.31,0,0,1,6.52,10.27ZM5.34,5.47a.31.31,0,0,1-.16.41.31.31,0,1,1,.16-.41ZM5,6.33,5.64,6a.28.28,0,0,0,.15-.37l-.14-.31h.54V7.79H5.1a3.65,3.65,0,0,1-.15-1C5,6.6,5,6.46,5,6.33Zm2.94-.24V5.37H9.2c.06,0,.47.08.47.38s-.31.34-.57.34Zm4.69.65a2.46,2.46,0,0,1,0,.28h-.39s0,0,0,.07v.18a.47.47,0,0,1-.45.54c-.2,0-.42-.09-.45-.21a1.37,1.37,0,0,0-.62-1,1.4,1.4,0,0,0,.78-1.08,1.21,1.21,0,0,0-.6-1A1.76,1.76,0,0,0,10,4.19H5.93A3.84,3.84,0,0,1,8.06,3l.48.51a.28.28,0,0,0,.4,0L9.48,3a3.8,3.8,0,0,1,2.61,1.87l-.36.82a.29.29,0,0,0,.14.38l.71.31c0,.13,0,.25,0,.38ZM8.54,2.56A.31.31,0,0,1,9,3a.31.31,0,1,1-.43-.45Zm3.64,2.92a.31.31,0,0,1,.41-.16.32.32,0,0,1,.15.41.31.31,0,0,1-.41.16A.31.31,0,0,1,12.18,5.48Z"/></g></svg>