<svg id="Shark" xmlns="http://www.w3.org/2000/svg" width="14" height="12" viewBox="0 0 14 12"><title>Sass</title><g id="Sass"><path d="M11.89,6.76A2.9,2.9,0,0,0,10.66,7a2.74,2.74,0,0,1-.27-.63,1.58,1.58,0,0,1,0-.54c0-.22.17-.55.16-.57s0-.14-.3-.14-.51,0-.53.12a2.94,2.94,0,0,0-.12.4,9,9,0,0,1-.82,1.59,1.28,1.28,0,0,1-.19-.46,1.53,1.53,0,0,1,0-.53c0-.23.17-.56.16-.58s0-.14-.3-.14-.51.05-.53.12-.06.24-.12.4S7,7.72,6.85,8.1c-.09.2-.16.35-.22.46h0v0l-.07.14h0c0,.07-.08.13-.1.13a.9.9,0,0,1,0-.42c.1-.51.33-1.31.33-1.34s0-.15-.15-.22a.24.24,0,0,0-.28,0s0,0,0,0,.21-.9-.41-.9a1.87,1.87,0,0,0-1.2.82l-.91.49-.44.24,0,0C2.59,6.77,1.19,6.2,1.25,5.12c0-.4.15-1.44,2.68-2.7,2.09-1,3.74-.74,4-.11.41.9-.89,2.57-3,2.81a1.63,1.63,0,0,1-1.36-.34c-.11-.12-.13-.13-.17-.11s0,.15,0,.22a1.3,1.3,0,0,0,.77.61,4.15,4.15,0,0,0,2.53-.25C8,4.74,9,3.34,8.71,2.17S6.43.58,4.56,1.25A9.41,9.41,0,0,0,1.37,3.08C.34,4,.18,4.88.25,5.23c.24,1.25,2,2.06,2.64,2.66l-.09.05c-.35.17-1.66.85-2,1.58s.06,1.41.34,1.49a2.14,2.14,0,0,0,2.28-.92A2.33,2.33,0,0,0,3.64,8h0l.27-.16c.17-.11.35-.2.5-.28a3,3,0,0,0-.18.9,1.84,1.84,0,0,0,.4,1.3A.44.44,0,0,0,5,9.84c.29,0,.42-.24.57-.53s.34-.76.34-.76-.2,1.11.34,1.11c.2,0,.4-.26.49-.39h0v0l0-.05h0c.07-.14.25-.45.52-1s.67-1.51.67-1.51a4.35,4.35,0,0,0,.13.55,4.88,4.88,0,0,0,.28.63l-.13.17h0L8,8.32a6.47,6.47,0,0,0-.63.8.22.22,0,0,0,.06.29.55.55,0,0,0,.33.05,1.63,1.63,0,0,0,.5-.11,1.6,1.6,0,0,0,.42-.23.92.92,0,0,0,.41-.84,1.61,1.61,0,0,0-.15-.6L9,7.58A10.76,10.76,0,0,0,9.75,6.3a4.35,4.35,0,0,0,.13.55,3.58,3.58,0,0,0,.24.54,2.43,2.43,0,0,0-.72.93c-.16.45,0,.66.2.7A.8.8,0,0,0,10,9a1.66,1.66,0,0,0,.45-.24,1,1,0,0,0,.51-.83,1.46,1.46,0,0,0-.12-.5,2.66,2.66,0,0,1,1.32-.15c1.17.14,1.41.87,1.36,1.18a.77.77,0,0,1-.37.53C13,9,13,9,13,9.05s.05,0,.12,0a.94.94,0,0,0,.64-.82C13.8,7.55,13.11,6.75,11.89,6.76ZM2.81,9.82c-.39.43-.94.59-1.17.45S1.49,9.5,2,9.05a6.07,6.07,0,0,1,.91-.69l.25-.14,0,0h0l.06,0A1.68,1.68,0,0,1,2.81,9.82ZM5.65,7.89c-.13.33-.42,1.18-.59,1.13S4.82,8.34,5,7.7a3.14,3.14,0,0,1,.46-.85c.21-.23.45-.31.51-.22A4.3,4.3,0,0,1,5.65,7.89ZM8,9c-.06,0-.11.05-.14,0s0,0,0,0l.41-.45c.06-.09.14-.19.23-.3v0A1,1,0,0,1,8,9ZM9.81,8.6s0-.13.1-.44a1.87,1.87,0,0,1,.41-.52,1,1,0,0,1,0,.23A.78.78,0,0,1,9.81,8.6Z" style="fill:#cd6799"/></g></svg>