<svg id="Shark" xmlns="http://www.w3.org/2000/svg" xmlns:xlink="http://www.w3.org/1999/xlink" width="14" height="12" viewBox="0 0 14 12"><defs><linearGradient id="linear-gradient" x1="-917.07" y1="537.12" x2="-917.07" y2="536.8" gradientTransform="matrix(39.62, 0, 0, -35.5, 36341.48, 19069.82)" gradientUnits="userSpaceOnUse"><stop offset="0" stop-color="#f88a36"/><stop offset="1" stop-color="#fd2020"/></linearGradient></defs><title>Swift</title><g id="Swift"><path id="Swift-2" data-name="Swift" d="M10.2,10.86a6.25,6.25,0,0,1-5.57.07A8.74,8.74,0,0,1,.71,7.57a6.68,6.68,0,0,0,1.44.88,6,6,0,0,0,5.73,0h0A30.25,30.25,0,0,1,2.61,3a5.81,5.81,0,0,1-.7-1A40.74,40.74,0,0,0,7,5.91a37.66,37.66,0,0,1-3.6-4.53A35.89,35.89,0,0,0,9.36,6.26a2,2,0,0,1,.23.14,4,4,0,0,0,.16-.49A6.63,6.63,0,0,0,8.44.36c2.87,1.73,4.56,5,3.86,7.7l-.06.22,0,0c1.41,1.77,1,3.64.85,3.29-.77-1.5-2.19-1-2.91-.74Z" style="fill:url(#linear-gradient)"/></g></svg>