<svg id="Shark" xmlns="http://www.w3.org/2000/svg" width="11.91" height="10.71" viewBox="0 0 11.91 10.71">
  <title>FileIcon</title>
  <g id="Icon">
    <g id="Typescript">
      <rect x="0.99" y="0.73" width="10.92" height="9.98" style="fill:#007acc" />
      <path d="M6,9.33H5.12V5.7H4V5H7.1V5.7H6Z" style="fill:#fcfcfc" />
      <path d="M8.86,7.41A2.2,2.2,0,0,1,8,6.88a1.13,1.13,0,0,1-.23-.74,1.19,1.19,0,0,1,.38-.93,1.53,1.53,0,0,1,1.05-.34,2.6,2.6,0,0,1,.61.07,2.82,2.82,0,0,1,.6.2V6a2,2,0,0,0-.57-.3,1.65,1.65,0,0,0-.57-.11.81.81,0,0,0-.48.13.42.42,0,0,0-.17.36.41.41,0,0,0,.12.3,1.6,1.6,0,0,0,.51.27l.37.14a1.66,1.66,0,0,1,.78.51,1.24,1.24,0,0,1,.25.81,1.22,1.22,0,0,1-.39,1,1.81,1.81,0,0,1-1.18.33,3,3,0,0,1-.66-.08,2.8,2.8,0,0,1-.63-.23v-.9a2.65,2.65,0,0,0,.67.37,1.85,1.85,0,0,0,.64.12.76.76,0,0,0,.5-.15.47.47,0,0,0,.17-.4.61.61,0,0,0-.11-.35.85.85,0,0,0-.34-.23Z"
        style="fill:#fcfcfc" />
    </g>
  </g>
</svg>