<svg id="Shark" xmlns="http://www.w3.org/2000/svg" width="14" height="12" viewBox="0 0 14 12"><title>Yarn</title><g id="Yarn"><path d="M14,8.89a.94.94,0,0,0-1-.81,3.7,3.7,0,0,0-1.87.68,3.36,3.36,0,0,1-.44.24,3.42,3.42,0,0,0-.2-1.47,3.64,3.64,0,0,0-.82-1.34A4.6,4.6,0,0,0,10.5,4.3a4.69,4.69,0,0,0-.24-2.63.53.53,0,0,0-.34-.28.61.61,0,0,0-.4,0C9.18.7,9.06.62,9,.56A.72.72,0,0,0,8.35.49a1.52,1.52,0,0,0-.75.86c0,.07-.07.14-.09.2a2.54,2.54,0,0,0-1.68.81.94.94,0,0,1-.36.19h0c-.3.1-.43.35-.6.79A1.92,1.92,0,0,0,5.11,5a3.69,3.69,0,0,0-1,1.27,4,4,0,0,0-.3,1.65A2.2,2.2,0,0,0,3.2,9.13a2.37,2.37,0,0,0,.34,1.43,1.34,1.34,0,0,0,.11.14.71.71,0,0,0,0,.29.78.78,0,0,0,.42.55,1.78,1.78,0,0,0,1.56.1A1.38,1.38,0,0,0,6.69,12h0a22.69,22.69,0,0,0,2.54-.23,1.27,1.27,0,0,0,.51-.25,9.64,9.64,0,0,0,2.21-1,3.72,3.72,0,0,1,1.33-.62.89.89,0,0,0,.68-1Zm-.8.5a3.77,3.77,0,0,0-1.49.68,8.79,8.79,0,0,1-2.2,1,.56.56,0,0,1-.37.21,23.94,23.94,0,0,1-2.42.22c-.44,0-.71-.11-.78-.29a.58.58,0,0,1,.32-.78,1.53,1.53,0,0,1-.19-.15c-.06-.06-.13-.19-.15-.14s-.13.71-.36.94a1.13,1.13,0,0,1-1.25,0c-.38-.2,0-.68,0-.68A.28.28,0,0,1,4,10.28,1.86,1.86,0,0,1,3.7,9.17a2,2,0,0,1,.66-1.08,3.49,3.49,0,0,1,.25-1.66A4,4,0,0,1,5.8,5.05s-.73-.8-.46-1.53c.18-.47.25-.47.31-.49a1.34,1.34,0,0,0,.54-.32,2,2,0,0,1,1.66-.64S8.29.73,8.7,1a7.25,7.25,0,0,1,.57,1.09s.49-.28.54-.18A4.28,4.28,0,0,1,10,4.21a5.22,5.22,0,0,1-1,2A4.19,4.19,0,0,1,10,7.7a4.32,4.32,0,0,1,.1,2l0,0A2.5,2.5,0,0,0,11.4,9.2,3.16,3.16,0,0,1,13,8.59.41.41,0,0,1,13.19,9.39Z" style="fill:#2c8ebb"/></g></svg>