<svg id="Shark" xmlns="http://www.w3.org/2000/svg" xmlns:xlink="http://www.w3.org/1999/xlink" width="24" height="24" viewBox="0 0 24 24"><defs><linearGradient id="linear-gradient" x1="12" y1="23.62" x2="12" y2="0.38" gradientUnits="userSpaceOnUse"><stop offset="0.12" stop-color="#e2e8ed"/><stop offset="0.84" stop-color="#fff"/></linearGradient><clipPath id="clip-path"><path d="M12,.7H11v.75h1Zm1,.75H12V2.2h1ZM12,2.2H11V3h1ZM13,3H12v.76h1Zm-1,.76H11v.75h1Zm1,.75H12v.75h1Zm-1,.75H11V6h1ZM13,6H12v.75h1Zm-1,.75H11v.75h1Zm1,.75H12v.75h1Zm-1,.75H11V9h1ZM13,9H12v.75h1Zm-1,.75H11v.75h1Zm1,.75H12v.75h1Zm-1,.75H11V12h1ZM13,12H12v.75h1Zm-1,.75H11v.75h1Zm1,.75H12v.76h1Zm-1,.76H11V15h1ZM13,15H12v.75h1Zm-1,.75H11v.75h1Zm1,.75H12v.76h1Zm-1,.76H11V18h1Z" style="fill:none"/></clipPath><clipPath id="clip-path-2"><path d="M11,9.42a1.12,1.12,0,0,0,1,1,1.12,1.12,0,0,0,1-1l.09-.7a.9.9,0,0,0-.93-1h-.3a.9.9,0,0,0-.93,1Z" style="fill:none"/></clipPath><clipPath id="clip-path-3"><path d="M12,10.6a.86.86,0,1,0-.89-.85A.87.87,0,0,0,12,10.6ZM10.24,9.48l.15-1.3c.11-1,.84-1.88,1.61-1.88s1.5.85,1.61,1.88l.15,1.3a1.59,1.59,0,0,1-1.52,1.89h-.48A1.59,1.59,0,0,1,10.24,9.48Z" style="fill:none"/></clipPath></defs><title>Archive</title><g id="Archive"><g id="File"><polygon points="3.42 23.63 3.42 0.38 14.2 0.38 17.36 3.5 20.58 6.54 20.58 23.63 3.42 23.63" style="fill:url(#linear-gradient)"/><path d="M14,.75l3.05,3L20.21,6.7V23.25H3.79V.75H14M14.35,0H3V24H21V6.38l-.24-.22L17.61,3.22l-3-3L14.35,0Z" style="fill:#4b5156"/><path d="M14.48,7.13a.85.85,0,0,1-.85-.84V.75l.64-.27,6.21,6-.26.65Z" style="fill:#fff"/><path d="M14,.75l3.1,3,3.11,3H14.48A.47.47,0,0,1,14,6.29V.75m.52-.54L13.26.75V6.29A1.21,1.21,0,0,0,14.48,7.5h5.74l.52-1.29-3.1-3-3.11-3Z" style="fill:#4b5156"/><path d="M20.14,23.15H3.87V19.62A7.55,7.55,0,0,0,6,21.57a9.66,9.66,0,0,0,10.46-.5A9.57,9.57,0,0,0,20.14,14Z" style="fill:#e6ebef"/><rect x="5" y="9.96" width="14" height="12" style="fill:none"/></g><g style="clip-path:url(#clip-path)"><rect x="9.89" y="-0.37" width="4.22" height="19.45" style="fill:#7d8790"/></g><path d="M12,.7H11v.75h1Zm1,.75H12V2.2h1ZM12,2.2H11V3h1ZM13,3H12v.76h1Zm-1,.76H11v.75h1Zm1,.75H12v.75h1Zm-1,.75H11V6h1ZM13,6H12v.75h1Zm-1,.75H11v.75h1Zm1,.75H12v.75h1Zm-1,.75H11V9h1ZM13,9H12v.75h1Zm-1,.75H11v.75h1Zm1,.75H12v.75h1Zm-1,.75H11V12h1ZM13,12H12v.75h1Zm-1,.75H11v.75h1Zm1,.75H12v.76h1Zm-1,.76H11V15h1ZM13,15H12v.75h1Zm-1,.75H11v.75h1Zm1,.75H12v.76h1Zm-1,.76H11V18h1Z" style="fill:none;stroke:#4b5156;stroke-miterlimit:10;stroke-width:0.25px"/><g style="clip-path:url(#clip-path-2)"><rect x="9.85" y="6.63" width="4.31" height="4.87" style="fill:#e1e6ec"/></g><path d="M10.74,9.28A1.43,1.43,0,0,0,12,10.58a1.43,1.43,0,0,0,1.26-1.3l.11-.89a1.14,1.14,0,0,0-1.18-1.3h-.38a1.14,1.14,0,0,0-1.18,1.3Z" style="fill:none;stroke:#727c8a;stroke-miterlimit:10;stroke-width:0.25px"/><g style="clip-path:url(#clip-path-3)"><rect x="8.86" y="4.93" width="6.28" height="7.8" style="fill:#e7ecf1"/></g><path d="M12,10.6a.86.86,0,1,0-.89-.85A.87.87,0,0,0,12,10.6ZM10.24,9.48l.15-1.3c.11-1,.84-1.88,1.61-1.88s1.5.85,1.61,1.88l.15,1.3a1.59,1.59,0,0,1-1.52,1.89h-.48A1.59,1.59,0,0,1,10.24,9.48Z" style="fill:none;stroke:#4b5156;stroke-miterlimit:10;stroke-width:0.25px"/></g></svg>