<svg id="Shark" xmlns="http://www.w3.org/2000/svg" xmlns:xlink="http://www.w3.org/1999/xlink" width="24" height="24" viewBox="0 0 24 24"><defs><linearGradient id="linear-gradient" x1="12" y1="23.63" x2="12" y2="0.38" gradientUnits="userSpaceOnUse"><stop offset="0.12" stop-color="#e2e8ed"/><stop offset="0.84" stop-color="#fff"/></linearGradient></defs><title>File</title><g id="File"><polygon points="3.42 23.63 3.42 0.38 14.2 0.38 17.36 3.5 20.58 6.54 20.58 23.63 3.42 23.63" style="fill:url(#linear-gradient)"/><path d="M14,.75l3.05,3L20.21,6.7V23.25H3.79V.75H14M14.35,0H3V24H21V6.38l-.24-.22L17.61,3.22l-3-3L14.35,0Z" style="fill:#4b5156"/><path d="M14.48,7.13a.85.85,0,0,1-.85-.84V.75l.64-.27,6.21,6-.26.65Z" style="fill:#fff"/><path d="M14,.75l3.1,3,3.11,3H14.48A.47.47,0,0,1,14,6.29V.75m.52-.54L13.26.75V6.29A1.21,1.21,0,0,0,14.48,7.5h5.74l.52-1.29-3.11-3-3.1-3Z" style="fill:#4b5156"/><path d="M20.14,23.15H3.87V19.62A7.55,7.55,0,0,0,6,21.57a9.66,9.66,0,0,0,10.46-.5A9.57,9.57,0,0,0,20.14,14Z" style="fill:#e6ebef"/><rect x="5" y="9.96" width="14" height="12" style="fill:none"/></g></svg>