<svg id="Shark" xmlns="http://www.w3.org/2000/svg" xmlns:xlink="http://www.w3.org/1999/xlink" width="24" height="24" viewBox="0 0 24 24"><defs><symbol id="Folder" data-name="Folder" viewBox="0 0 64 49.69"><path d="M.38,49.32V1.91A1.54,1.54,0,0,1,1.93.38H21.76A1.58,1.58,0,0,1,23,.93L27.5,9.19H62a1.61,1.61,0,0,1,1.6,1.62V49.32Z" style="fill:#569cb7"/><path d="M21.76.75a1.17,1.17,0,0,1,.91.42l4.61,8.39H62a1.24,1.24,0,0,1,1.23,1.25V48.94H.75v-47A1.17,1.17,0,0,1,1.93.75H21.76m0-.75H1.93A1.93,1.93,0,0,0,0,1.91V49.69H64V10.81a2,2,0,0,0-2-2H27.72l-4.39-8,0-.07L23.24.68A2,2,0,0,0,21.76,0Z" style="fill:#345166"/><path d="M.38,45.72V15.38A1.37,1.37,0,0,1,1.75,14h60.5a1.37,1.37,0,0,1,1.37,1.37V45.72Z" style="fill:#84d4f8"/><path d="M62.25,14.38a1,1,0,0,1,1,1v30H.75v-30a1,1,0,0,1,1-1h60.5m0-.75H1.75A1.76,1.76,0,0,0,0,15.38V46.09H64V15.38a1.75,1.75,0,0,0-1.75-1.75Z" style="fill:#345166"/><path d="M62.94,45.11H1v-9a14.82,14.82,0,0,0,4.17,6.22c3.56,3,17.82,2.34,27.67,2.29,12.49-.06,18.84.15,23.3-3S62.1,36,63,28.23Z" style="fill:#7acdea"/></symbol></defs><title>Folder</title><use id="Folder-3" data-name="Folder" width="64" height="49.69" transform="translate(0.48 3.06) scale(0.36)" xlink:href="#Folder"/></svg>