<svg id="Shark" xmlns="http://www.w3.org/2000/svg" width="24" height="24" viewBox="0 0 24 24"><title>Project</title><g id="Project"><polygon points="3.42 23.63 3.42 0.38 14.2 0.38 17.36 3.5 20.58 6.54 20.58 23.63 3.42 23.63" style="fill:#007acc"/><path d="M14,.75l3.05,3L20.21,6.7V23.25H3.79V.75H14M14.35,0H3V24H21V6.38l-.24-.22L17.61,3.22l-3-3L14.35,0Z" style="fill:#003a6f"/><path d="M14.48,7.13a.85.85,0,0,1-.85-.84V.75l.64-.27,6.21,6-.26.65Z" style="fill:#007acc"/><path d="M14,.75l3.1,3,3.11,3H14.48A.47.47,0,0,1,14,6.29V.75m.52-.54L13.26.75V6.29A1.21,1.21,0,0,0,14.48,7.5h5.74l.52-1.29-3.1-3-3.11-3Z" style="fill:#003a6f"/><path d="M20.14,23.15H3.87V19.62A7.55,7.55,0,0,0,6,21.57a9.66,9.66,0,0,0,10.46-.5A9.57,9.57,0,0,0,20.14,14Z" style="fill:#008ad9"/><path d="M7.26,15.39V10.62l0,0,.93-.47a.08.08,0,0,1,.08,0l.55.44,1.72,1.35,0,0s0,0,0,0l3.16-3.16.47-.47a.06.06,0,0,1,.07,0l.24.1,2.09.83c.06,0,0,0,0,.09v7.47s0,0,0,.06l-.92.37-1.42.58s0,0-.07,0l-1.91-1.92-1.72-1.72,0,0-.05,0L8.88,15.43l-.56.44a.06.06,0,0,1-.07,0,.61.61,0,0,0-.14-.07l-.81-.4Zm7-.67c0-.05,0-3.4,0-3.44l0,0-.43.33-1.24,1-.49.38,0,0ZM8.37,14.1s1.15-1,1.17-1.07L8.39,11.89h0a0,0,0,0,0,0,0C8.35,12.24,8.36,14.06,8.37,14.1Z" style="fill:#fff"/><line x1="4.78" y1="19.77" x2="19.26" y2="19.77" style="fill:none;stroke:#fff;stroke-miterlimit:10;stroke-width:0.5px"/><polyline points="19.35 7.51 19.35 22.08 4.65 22.08 4.65 1.92 13.25 1.92" style="fill:none;stroke:#fff;stroke-miterlimit:10;stroke-width:0.5px"/></g></svg>