<svg id="Shark" xmlns="http://www.w3.org/2000/svg" width="14" height="12" viewBox="0 0 14 12"><title>Typescript</title><g id="Typescript"><rect x="1.35" y="0.44" width="12.65" height="11.56" style="fill:#007acc"/><path d="M7.13,10.41h-1V6.21H4.84V5.33H8.42v.88H7.13Z" style="fill:#fcfcfc"/><path d="M10.46,8.18a2.56,2.56,0,0,1-1-.61,1.27,1.27,0,0,1-.27-.85,1.4,1.4,0,0,1,.44-1.09,1.79,1.79,0,0,1,1.22-.39,2.84,2.84,0,0,1,.7.08,3.73,3.73,0,0,1,.69.23v1a2.3,2.3,0,0,0-.66-.34,1.92,1.92,0,0,0-.66-.12.88.88,0,0,0-.55.14.5.5,0,0,0-.2.42.48.48,0,0,0,.14.35,1.93,1.93,0,0,0,.59.3l.44.17a2.11,2.11,0,0,1,.9.59,1.5,1.5,0,0,1,.29.94,1.41,1.41,0,0,1-.46,1.15,2.11,2.11,0,0,1-1.37.38,3.35,3.35,0,0,1-.76-.09,3.21,3.21,0,0,1-.73-.27v-1a3.83,3.83,0,0,0,.78.43,2.15,2.15,0,0,0,.74.14.91.91,0,0,0,.58-.17.59.59,0,0,0,.2-.47.61.61,0,0,0-.14-.4A.81.81,0,0,0,11,8.37Z" style="fill:#fcfcfc"/></g></svg>